<svg width="25" height="24" viewBox="0 0 25 24" fill="none" xmlns="http://www.w3.org/2000/svg">
<path d="M6.6875 2.25V5.175C6.6875 8.40587 9.28984 11.025 12.5 11.025C15.7102 11.025 18.3125 8.40587 18.3125 5.175V2.25H20.25V5.175C20.25 8.11173 18.6374 10.6694 16.2549 12C18.6374 13.3306 20.25 15.8883 20.25 18.825V21.75L4.75 21.75V18.825C4.75 15.8883 6.36256 13.3306 8.74512 12C6.36256 10.6694 4.75 8.11173 4.75 5.175V2.25H6.6875Z" fill="url(#paint0_linear_9951_35595)" fill-opacity="0.8"/>
<path fill-rule="evenodd" clip-rule="evenodd" d="M3.5 1H21.5V3H3.5V1ZM3.5 21H21.5V23H3.5V21Z" fill="url(#paint1_linear_9951_35595)" fill-opacity="0.8"/>
<defs>
<linearGradient id="paint0_linear_9951_35595" x1="12.5" y1="2.25" x2="12.5" y2="21.75" gradientUnits="userSpaceOnUse">
<stop stop-color="white"/>
<stop offset="0.48" stop-color="white" stop-opacity="0.8"/>
</linearGradient>
<linearGradient id="paint1_linear_9951_35595" x1="12.5" y1="1" x2="12.5" y2="23" gradientUnits="userSpaceOnUse">
<stop stop-color="white"/>
<stop offset="0.48" stop-color="white" stop-opacity="0.8"/>
</linearGradient>
</defs>
</svg>
