<svg width="5963" height="1851" viewBox="0 0 5963 1851" fill="none" xmlns="http://www.w3.org/2000/svg">
<rect x="1551" width="1390" height="1843" rx="166" fill="#F39544"/>
<g filter="url(#filter0_d_1075_6928)">
<path d="M2486.05 1613.66C2455.85 1643.4 2415.13 1660 2372.74 1660H1950C1860.53 1660 1788 1587.47 1788 1498V235C1788 145.53 1860.53 73 1950 73H2371.79C2414.74 73 2455.95 90.0497 2486.28 120.471C2531.99 166.318 2577.24 211.94 2622.05 257.336C2667.08 301.758 2711.9 346.179 2756.49 390.6C2786.94 420.929 2804 462.154 2804 505.128V1228.82C2804 1271.23 2787.38 1311.97 2757.61 1342.18C2667.32 1433.8 2576.8 1524.29 2486.05 1613.66ZM2231.28 1152.14C2231.28 1187.88 2260.26 1216.86 2296 1216.86C2331.74 1216.86 2360.72 1187.88 2360.72 1152.14V580.86C2360.72 545.116 2331.74 516.139 2296 516.139C2260.26 516.139 2231.28 545.116 2231.28 580.86V1152.14Z" fill="white"/>
</g>
<g filter="url(#filter1_d_1075_6928)">
<path d="M423.452 1843H140C64.8893 1843 4 1782.11 4 1707V136C4 60.8893 64.8892 0 140 0H407.831C459.537 0 506.77 29.3202 529.711 75.6578L865.495 753.88C901.829 827.268 1012.35 801.407 1012.35 719.517C1012.35 708.951 1010.19 698.496 1006 688.797L790.445 189.944C751.648 100.157 817.478 0 915.289 0H1141C1216.66 0 1278 61.337 1278 137V1706C1278 1781.66 1216.66 1843 1141 1843H909.827C858.13 1843 810.904 1813.69 787.958 1767.37L463.644 1112.62C424.461 1033.52 305.326 1061.41 305.326 1149.68C305.326 1162.71 308.375 1175.56 314.23 1187.2L544.948 1645.89C590.442 1736.33 524.695 1843 423.452 1843Z" fill="#F39544"/>
</g>
<path d="M3776.66 1328.38H3925.53V257.33C3925.53 115.211 4040.74 0 4182.86 0C4324.98 0 4440.19 115.211 4440.19 257.331V1419.11C4440.19 1496.61 4420.82 1567.5 4382.06 1631.76C4344.25 1696.03 4293.21 1747.54 4228.94 1786.29C4165.61 1824.1 4094.72 1843 4016.27 1843H3684.5C3607 1843 3536.11 1824.1 3471.83 1786.29C3407.56 1747.54 3356.52 1696.03 3318.71 1631.76C3280.9 1567.5 3262 1496.61 3262 1419.11V257.331C3262 115.211 3377.21 0 3519.33 0C3661.45 0 3776.66 115.211 3776.66 257.331V1328.38Z" fill="white"/>
<path d="M4961.39 1843C4863.08 1843 4783.39 1763.31 4783.39 1665V119C4783.39 53.2781 4836.67 0 4902.39 0H5539.08C5617.53 0 5688.42 19.3751 5751.75 58.1254C5816.02 95.9305 5867.06 146.967 5904.87 211.236C5943.62 274.56 5963 345.444 5963 423.89V755.63C5963 833.131 5943.62 904.015 5904.87 968.284C5867.06 1032.55 5816.02 1084.06 5751.75 1122.81C5688.42 1160.62 5617.53 1179.52 5539.08 1179.52H5298.05V1672C5298.05 1766.44 5221.49 1843 5127.05 1843H4961.39ZM5449.76 735.782V443.738H5299.47V735.782H5449.76Z" fill="white"/>
<defs>
<filter id="filter0_d_1075_6928" x="1649" y="73" width="1155" height="1706" filterUnits="userSpaceOnUse" color-interpolation-filters="sRGB">
<feFlood flood-opacity="0" result="BackgroundImageFix"/>
<feColorMatrix in="SourceAlpha" type="matrix" values="0 0 0 0 0 0 0 0 0 0 0 0 0 0 0 0 0 0 127 0" result="hardAlpha"/>
<feOffset dx="-135" dy="115"/>
<feGaussianBlur stdDeviation="2"/>
<feComposite in2="hardAlpha" operator="out"/>
<feColorMatrix type="matrix" values="0 0 0 0 0 0 0 0 0 0 0 0 0 0 0 0 0 0 0.25 0"/>
<feBlend mode="normal" in2="BackgroundImageFix" result="effect1_dropShadow_1075_6928"/>
<feBlend mode="normal" in="SourceGraphic" in2="effect1_dropShadow_1075_6928" result="shape"/>
</filter>
<filter id="filter1_d_1075_6928" x="0" y="0" width="1282" height="1851" filterUnits="userSpaceOnUse" color-interpolation-filters="sRGB">
<feFlood flood-opacity="0" result="BackgroundImageFix"/>
<feColorMatrix in="SourceAlpha" type="matrix" values="0 0 0 0 0 0 0 0 0 0 0 0 0 0 0 0 0 0 127 0" result="hardAlpha"/>
<feOffset dy="4"/>
<feGaussianBlur stdDeviation="2"/>
<feComposite in2="hardAlpha" operator="out"/>
<feColorMatrix type="matrix" values="0 0 0 0 0 0 0 0 0 0 0 0 0 0 0 0 0 0 0.25 0"/>
<feBlend mode="normal" in2="BackgroundImageFix" result="effect1_dropShadow_1075_6928"/>
<feBlend mode="normal" in="SourceGraphic" in2="effect1_dropShadow_1075_6928" result="shape"/>
</filter>
</defs>
</svg>
